<svg width="567" height="225" xmlns="http://www.w3.org/2000/svg" xmlns:xlink="http://www.w3.org/1999/xlink" xml:space="preserve" overflow="hidden"><g><path d="M45.3748 197.999 49.5936 197.999M269.53 197.999 265.311 197.999 265.317 197.999" stroke="#000000" stroke-width="0.468748" fill="none" transform="matrix(1.00173 0 0 1 285.263 0)"/><text font-family="Arial,Arial_MSFontService,sans-serif" font-weight="400" font-size="16" transform="matrix(0.469561 0 0 0.46875 299.114 200)">-</text><text font-family="Arial,Arial_MSFontService,sans-serif" font-weight="400" font-size="16" transform="matrix(0.469561 0 0 0.46875 301.462 200)">518420</text><path d="M45.3748 178.968 49.5936 178.968M269.53 178.968 265.311 178.968 265.317 178.968" stroke="#000000" stroke-width="0.468748" fill="none" transform="matrix(1.00173 0 0 1 285.263 0)"/><text font-family="Arial,Arial_MSFontService,sans-serif" font-weight="400" font-size="16" transform="matrix(0.469561 0 0 0.46875 299.114 181)">-</text><text font-family="Arial,Arial_MSFontService,sans-serif" font-weight="400" font-size="16" transform="matrix(0.469561 0 0 0.46875 301.462 181)">518400</text><path d="M45.3748 159.984 49.5936 159.984M269.53 159.984 265.311 159.984 265.317 159.984" stroke="#000000" stroke-width="0.468748" fill="none" transform="matrix(1.00173 0 0 1 285.263 0)"/><text font-family="Arial,Arial_MSFontService,sans-serif" font-weight="400" font-size="16" transform="matrix(0.469561 0 0 0.46875 299.114 162)">-</text><text font-family="Arial,Arial_MSFontService,sans-serif" font-weight="400" font-size="16" transform="matrix(0.469561 0 0 0.46875 301.462 162)">518380</text><path d="M45.3748 140.953 49.5936 140.953M269.53 140.953 265.311 140.953 265.317 140.953" stroke="#000000" stroke-width="0.468748" fill="none" transform="matrix(1.00173 0 0 1 285.263 0)"/><text font-family="Arial,Arial_MSFontService,sans-serif" font-weight="400" font-size="16" transform="matrix(0.469561 0 0 0.46875 299.114 143)">-</text><text font-family="Arial,Arial_MSFontService,sans-serif" font-weight="400" font-size="16" transform="matrix(0.469561 0 0 0.46875 301.462 143)">518360</text><path d="M45.3748 121.921 49.5936 121.921M269.53 121.921 265.311 121.921 265.317 121.921" stroke="#000000" stroke-width="0.468748" fill="none" transform="matrix(1.00173 0 0 1 285.263 0)"/><text font-family="Arial,Arial_MSFontService,sans-serif" font-weight="400" font-size="16" transform="matrix(0.469561 0 0 0.46875 299.114 124)">-</text><text font-family="Arial,Arial_MSFontService,sans-serif" font-weight="400" font-size="16" transform="matrix(0.469561 0 0 0.46875 301.462 124)">518340</text><path d="M45.3748 102.89 49.5936 102.89M269.53 102.89 265.311 102.89 265.317 102.89" stroke="#000000" stroke-width="0.468748" fill="none" transform="matrix(1.00173 0 0 1 285.263 0)"/><text font-family="Arial,Arial_MSFontService,sans-serif" font-weight="400" font-size="16" transform="matrix(0.469561 0 0 0.46875 299.114 105)">-</text><text font-family="Arial,Arial_MSFontService,sans-serif" font-weight="400" font-size="16" transform="matrix(0.469561 0 0 0.46875 301.462 105)">518320</text><path d="M45.3748 83.9059 49.5936 83.9059M269.53 83.9059 265.311 83.9059 265.317 83.9059" stroke="#000000" stroke-width="0.468748" fill="none" transform="matrix(1.00173 0 0 1 285.263 0)"/><text font-family="Arial,Arial_MSFontService,sans-serif" font-weight="400" font-size="16" transform="matrix(0.469561 0 0 0.46875 299.114 86)">-</text><text font-family="Arial,Arial_MSFontService,sans-serif" font-weight="400" font-size="16" transform="matrix(0.469561 0 0 0.46875 301.462 86)">518300</text><path d="M45.3748 64.8747 49.5936 64.8747M269.53 64.8747 265.311 64.8747 265.317 64.8747" stroke="#000000" stroke-width="0.468748" fill="none" transform="matrix(1.00173 0 0 1 285.263 0)"/><text font-family="Arial,Arial_MSFontService,sans-serif" font-weight="400" font-size="16" transform="matrix(0.469561 0 0 0.46875 299.114 67)">-</text><text font-family="Arial,Arial_MSFontService,sans-serif" font-weight="400" font-size="16" transform="matrix(0.469561 0 0 0.46875 301.462 67)">518280</text><path d="M45.3748 45.8436 49.5936 45.8436M269.53 45.8436 265.311 45.8436 265.317 45.8436" stroke="#000000" stroke-width="0.468748" fill="none" transform="matrix(1.00173 0 0 1 285.263 0)"/><text font-family="Arial,Arial_MSFontService,sans-serif" font-weight="400" font-size="16" transform="matrix(0.469561 0 0 0.46875 299.114 48)">-</text><text font-family="Arial,Arial_MSFontService,sans-serif" font-weight="400" font-size="16" transform="matrix(0.469561 0 0 0.46875 301.462 48)">518260</text><path d="M45.3748 26.8593 49.5936 26.8593M269.53 26.8593 265.311 26.8593 265.317 26.8593" stroke="#000000" stroke-width="0.468748" fill="none" transform="matrix(1.00173 0 0 1 285.263 0)"/><text font-family="Arial,Arial_MSFontService,sans-serif" font-weight="400" font-size="16" transform="matrix(0.469561 0 0 0.46875 299.114 29)">-</text><text font-family="Arial,Arial_MSFontService,sans-serif" font-weight="400" font-size="16" transform="matrix(0.469561 0 0 0.46875 301.462 29)">518240</text><path d="M45.3748 7.82809 49.5936 7.82809M269.53 7.82809 265.311 7.82809 265.317 7.82809" stroke="#000000" stroke-width="0.468748" fill="none" transform="matrix(1.00173 0 0 1 285.263 0)"/><text font-family="Arial,Arial_MSFontService,sans-serif" font-weight="400" font-size="16" transform="matrix(0.469561 0 0 0.46875 299.114 10)">-</text><text font-family="Arial,Arial_MSFontService,sans-serif" font-weight="400" font-size="16" transform="matrix(0.469561 0 0 0.46875 301.462 10)">518220</text><path d="M45.3748 197.999 45.3748 193.78M45.3748 7.82809 45.3748 12.0468 45.3794 12.0468" stroke="#000000" stroke-width="0.468748" fill="none" transform="matrix(1.00173 0 0 1 285.263 0)"/><text font-family="Arial,Arial_MSFontService,sans-serif" font-weight="400" font-size="16" transform="matrix(0.469561 0 0 0.46875 324.378 209)">100</text><path d="M70.2653 197.999 70.2653 193.78M70.2653 7.82809 70.2653 12.0468 70.27 12.0468" stroke="#000000" stroke-width="0.468748" fill="none" transform="matrix(1.00173 0 0 1 285.263 0)"/><text font-family="Arial,Arial_MSFontService,sans-serif" font-weight="400" font-size="16" transform="matrix(0.469561 0 0 0.46875 349.311 209)">200</text><path d="M95.2027 197.999 95.2027 193.78M95.2027 7.82809 95.2027 12.0468 95.2074 12.0468" stroke="#000000" stroke-width="0.468748" fill="none" transform="matrix(1.00173 0 0 1 285.263 0)"/><text font-family="Arial,Arial_MSFontService,sans-serif" font-weight="400" font-size="16" transform="matrix(0.469561 0 0 0.46875 374.292 209)">300</text><path d="M120.093 197.999 120.093 193.78M120.093 7.82809 120.093 12.0468 120.098 12.0468" stroke="#000000" stroke-width="0.468748" fill="none" transform="matrix(1.00173 0 0 1 285.263 0)"/><text font-family="Arial,Arial_MSFontService,sans-serif" font-weight="400" font-size="16" transform="matrix(0.469561 0 0 0.46875 399.226 209)">400</text><path d="M144.984 197.999 144.984 193.78M144.984 7.82809 144.984 12.0468 144.988 12.0468" stroke="#000000" stroke-width="0.468748" fill="none" transform="matrix(1.00173 0 0 1 285.263 0)"/><text font-family="Arial,Arial_MSFontService,sans-serif" font-weight="400" font-size="16" transform="matrix(0.469561 0 0 0.46875 424.159 209)">500</text><path d="M169.921 197.999 169.921 193.78M169.921 7.82809 169.921 12.0468 169.926 12.0468" stroke="#000000" stroke-width="0.468748" fill="none" transform="matrix(1.00173 0 0 1 285.263 0)"/><text font-family="Arial,Arial_MSFontService,sans-serif" font-weight="400" font-size="16" transform="matrix(0.469561 0 0 0.46875 449.14 209)">600</text><path d="M194.812 197.999 194.812 193.78M194.812 7.82809 194.812 12.0468 194.816 12.0468" stroke="#000000" stroke-width="0.468748" fill="none" transform="matrix(1.00173 0 0 1 285.263 0)"/><text font-family="Arial,Arial_MSFontService,sans-serif" font-weight="400" font-size="16" transform="matrix(0.469561 0 0 0.46875 474.073 209)">700</text><path d="M219.702 197.999 219.702 193.78M219.702 7.82809 219.702 12.0468 219.708 12.0468" stroke="#000000" stroke-width="0.468748" fill="none" transform="matrix(1.00173 0 0 1 285.263 0)"/><text font-family="Arial,Arial_MSFontService,sans-serif" font-weight="400" font-size="16" transform="matrix(0.469561 0 0 0.46875 499.008 209)">800</text><path d="M244.64 197.999 244.64 193.78M244.64 7.82809 244.64 12.0468 244.644 12.0468" stroke="#000000" stroke-width="0.468748" fill="none" transform="matrix(1.00173 0 0 1 285.263 0)"/><text font-family="Arial,Arial_MSFontService,sans-serif" font-weight="400" font-size="16" transform="matrix(0.469561 0 0 0.46875 523.988 209)">900</text><path d="M269.53 197.999 269.53 193.78M269.53 7.82809 269.53 12.0468 269.536 12.0468" stroke="#000000" stroke-width="0.468748" fill="none" transform="matrix(1.00173 0 0 1 285.263 0)"/><text font-family="Arial,Arial_MSFontService,sans-serif" font-weight="400" font-size="16" transform="matrix(0.469561 0 0 0.46875 546.809 209)">1000</text><path d="M45.3748 7.82809 45.3748 197.999 269.53 197.999 269.53 7.82809 45.3748 7.82809ZM45.3748 7.82809 45.3794 7.82809" stroke="#000000" stroke-width="0.468748" fill="none" transform="matrix(1.00173 0 0 1 285.263 0)"/><text font-family="Arial,Arial_MSFontService,sans-serif" font-weight="400" font-size="16" transform="matrix(-8.62569e-17 -0.46875 0.469561 -8.6108e-17 293.528 122)">energy </text><text font-family="Arial,Arial_MSFontService,sans-serif" font-weight="400" font-size="16" transform="matrix(-8.62569e-17 -0.46875 0.469561 -8.6108e-17 293.528 98)">(</text><text font-family="Arial,Arial_MSFontService,sans-serif" font-weight="400" font-size="16" transform="matrix(-8.62569e-17 -0.46875 0.469561 -8.6108e-17 293.528 96)">eV</text><text font-family="Arial,Arial_MSFontService,sans-serif" font-weight="400" font-size="16" transform="matrix(-8.62569e-17 -0.46875 0.469561 -8.6108e-17 293.528 86)">)</text><text font-family="Arial,Arial_MSFontService,sans-serif" font-weight="400" font-size="16" transform="matrix(0.469561 0 0 0.46875 417.397 221)">temperature </text><text font-family="Arial,Arial_MSFontService,sans-serif" font-weight="400" font-size="16" transform="matrix(0.469561 0 0 0.46875 458.719 221)">(</text><text font-family="Arial,Arial_MSFontService,sans-serif" font-weight="400" font-size="16" transform="matrix(0.469561 0 0 0.46875 461.067 221)">K</text><text font-family="Arial,Arial_MSFontService,sans-serif" font-weight="400" font-size="16" transform="matrix(0.469561 0 0 0.46875 466.232 221)">)</text><path d="M45.3748 187.827 70.2653 181.077 95.2027 176.062 120.093 178.312 144.984 188.578 169.921 179.062 194.812 171.702 219.702 44.0154 244.64 25.078 269.53 9.93746 269.536 9.93746" stroke="#FF0000" stroke-width="0.468748" fill="none" transform="matrix(1.00173 0 0 1 285.263 0)"/><path d="M2.10937 0C2.10937 1.16497 1.16497 2.10937 -4.68374e-16 2.10937-1.16497 2.10937-2.10937 1.16497-2.10937 2.34187e-16-2.10937-1.16497-1.16497-2.10937 -2.34187e-16-2.10937 1.16497-2.10937 2.10937-1.16497 2.10937 0Z" stroke="#FF0000" stroke-width="0.468279" fill="none" transform="matrix(1.00173 0 0 1 330.716 187.828)"/><path d="M2.10937 0C2.10937 1.16497 1.16497 2.10937 -4.68374e-16 2.10937-1.16497 2.10937-2.10937 1.16497-2.10937 2.34187e-16-2.10937-1.16497-1.16497-2.10937 -2.34187e-16-2.10937 1.16497-2.10937 2.10937-1.16497 2.10937 0Z" stroke="#FF0000" stroke-width="0.468279" fill="none" transform="matrix(1.00173 0 0 1 355.651 181.078)"/><path d="M2.10937 0C2.10937 1.16497 1.16497 2.10937 -4.68374e-16 2.10937-1.16497 2.10937-2.10937 1.16497-2.10937 2.34187e-16-2.10937-1.16497-1.16497-2.10937 -2.34187e-16-2.10937 1.16497-2.10937 2.10937-1.16497 2.10937 0Z" stroke="#FF0000" stroke-width="0.468279" fill="none" transform="matrix(1.00173 0 0 1 380.631 176.063)"/><path d="M2.10937 0C2.10937 1.16497 1.16497 2.10937 -4.68374e-16 2.10937-1.16497 2.10937-2.10937 1.16497-2.10937 2.34187e-16-2.10937-1.16497-1.16497-2.10937 -2.34187e-16-2.10937 1.16497-2.10937 2.10937-1.16497 2.10937 0Z" stroke="#FF0000" stroke-width="0.468279" fill="none" transform="matrix(1.00173 0 0 1 405.566 178.313)"/><path d="M2.10937 0C2.10937 1.16497 1.16497 2.10937 -4.68374e-16 2.10937-1.16497 2.10937-2.10937 1.16497-2.10937 2.34187e-16-2.10937-1.16497-1.16497-2.10937 -2.34187e-16-2.10937 1.16497-2.10937 2.10937-1.16497 2.10937 0Z" stroke="#FF0000" stroke-width="0.468279" fill="none" transform="matrix(1.00173 0 0 1 430.499 188.578)"/><path d="M2.10937 0C2.10937 1.16497 1.16497 2.10937 -4.68374e-16 2.10937-1.16497 2.10937-2.10937 1.16497-2.10937 2.34187e-16-2.10937-1.16497-1.16497-2.10937 -2.34187e-16-2.10937 1.16497-2.10937 2.10937-1.16497 2.10937 0Z" stroke="#FF0000" stroke-width="0.468279" fill="none" transform="matrix(1.00173 0 0 1 455.478 179.063)"/><path d="M2.10937 0C2.10937 1.16497 1.16497 2.10937 -4.68374e-16 2.10937-1.16497 2.10937-2.10937 1.16497-2.10937 2.34187e-16-2.10937-1.16497-1.16497-2.10937 -2.34187e-16-2.10937 1.16497-2.10937 2.10937-1.16497 2.10937 0Z" stroke="#FF0000" stroke-width="0.468279" fill="none" transform="matrix(1.00173 0 0 1 480.413 171.704)"/><path d="M2.10937 0C2.10937 1.16497 1.16497 2.10937 -4.68374e-16 2.10937-1.16497 2.10937-2.10937 1.16497-2.10937 2.34187e-16-2.10937-1.16497-1.16497-2.10937 -2.34187e-16-2.10937 1.16497-2.10937 2.10937-1.16497 2.10937 0Z" stroke="#FF0000" stroke-width="0.468279" fill="none" transform="matrix(1.00173 0 0 1 505.346 44.0148)"/><path d="M2.10937 0C2.10937 1.16497 1.16497 2.10937 -4.68374e-16 2.10937-1.16497 2.10937-2.10937 1.16497-2.10937 2.34187e-16-2.10937-1.16497-1.16497-2.10937 -2.34187e-16-2.10937 1.16497-2.10937 2.10937-1.16497 2.10937 0Z" stroke="#FF0000" stroke-width="0.468279" fill="none" transform="matrix(1.00173 0 0 1 530.328 25.0778)"/><path d="M2.10937 0C2.10937 1.16497 1.16497 2.10937 -4.68374e-16 2.10937-1.16497 2.10937-2.10937 1.16497-2.10937 2.34187e-16-2.10937-1.16497-1.16497-2.10937 -2.34187e-16-2.10937 1.16497-2.10937 2.10937-1.16497 2.10937 0Z" stroke="#FF0000" stroke-width="0.468279" fill="none" transform="matrix(1.00173 0 0 1 555.261 9.93741)"/><path d="M45.3748 7.82809 45.3748 197.999 269.53 197.999 269.53 7.82809 45.3748 7.82809ZM45.3748 7.82809 45.3794 7.82809" stroke="#000000" stroke-width="0.468748" fill="none" transform="matrix(1.00173 0 0 1 285.263 0)"/><text font-family="Yu Gothic,Yu Gothic_MSFontService,sans-serif" font-weight="400" font-size="55" transform="matrix(0.185597 0 0 0.185185 352.199 31)">GeSb</text><text font-family="Yu Gothic,Yu Gothic_MSFontService,sans-serif" font-weight="400" font-size="37" transform="matrix(0.185597 0 0 0.185185 377.719 33)">2</text><text font-family="Yu Gothic,Yu Gothic_MSFontService,sans-serif" font-weight="400" font-size="55" transform="matrix(0.185597 0 0 0.185185 381.546 31)">Te</text><text font-family="Yu Gothic,Yu Gothic_MSFontService,sans-serif" font-weight="400" font-size="37" transform="matrix(0.185597 0 0 0.185185 393.669 33)">4</text><text font-family="Yu Gothic,Yu Gothic_MSFontService,sans-serif" font-weight="400" font-size="55" transform="matrix(0.185597 0 0 0.185185 332.915 146)">アモルファス</text><path d="M454.244 318.306 499.976 318.306 499.976 318.731 454.244 318.731ZM455.093 321.065 450 318.518 455.093 315.972ZM499.128 315.972 504.22 318.518 499.128 321.065Z" transform="matrix(1.00223 0 0 1 -122.309 -164.074)"/><text font-family="Yu Gothic,Yu Gothic_MSFontService,sans-serif" font-weight="400" font-size="64" transform="matrix(0.185597 0 0 0.185185 414.641 157)">(</text><text font-family="Yu Gothic,Yu Gothic_MSFontService,sans-serif" font-weight="400" font-size="64" transform="matrix(0.185597 0 0 0.185185 419.213 157)">多</text><text font-family="Yu Gothic,Yu Gothic_MSFontService,sans-serif" font-weight="400" font-size="64" transform="matrix(0.185597 0 0 0.185185 431.122 157)">)</text><text font-family="Yu Gothic,Yu Gothic_MSFontService,sans-serif" font-weight="400" font-size="64" transform="matrix(0.185597 0 0 0.185185 435.695 157)">結晶</text><path d="M527.948 325.713 594.731 325.713 594.731 326.139 527.948 326.139ZM528.796 328.472 523.704 325.926 528.796 323.38ZM593.881 323.38 598.974 325.926 593.881 328.472Z" transform="matrix(1.00223 0 0 1 -122.309 -164.074)"/><text font-family="Yu Gothic,Yu Gothic_MSFontService,sans-serif" font-weight="400" font-size="64" transform="matrix(0.185597 0 0 0.185185 521.664 66)">液体</text><path d="M636.837 210.528 670.52 210.528 670.52 210.954 636.837 210.954ZM637.685 213.287 632.593 210.741 637.685 208.194ZM669.67 208.194 674.763 210.741 669.67 213.287Z" transform="matrix(1.00223 0 0 1 -122.309 -164.074)"/><path d="M45.3748 197.999 49.5936 197.999M269.53 197.999 265.311 197.999 265.317 197.999" stroke="#000000" stroke-width="0.468748" fill="none" transform="scale(1.00173 1)"/><text font-family="Arial,Arial_MSFontService,sans-serif" font-weight="400" font-size="16" transform="matrix(0.469561 0 0 0.46875 13.8521 200)">-</text><text font-family="Arial,Arial_MSFontService,sans-serif" font-weight="400" font-size="16" transform="matrix(0.469561 0 0 0.46875 16.1999 200)">458700</text><path d="M45.3748 159.984 49.5936 159.984M269.53 159.984 265.311 159.984 265.317 159.984" stroke="#000000" stroke-width="0.468748" fill="none" transform="scale(1.00173 1)"/><text font-family="Arial,Arial_MSFontService,sans-serif" font-weight="400" font-size="16" transform="matrix(0.469561 0 0 0.46875 13.8521 162)">-</text><text font-family="Arial,Arial_MSFontService,sans-serif" font-weight="400" font-size="16" transform="matrix(0.469561 0 0 0.46875 16.1999 162)">458650</text><path d="M45.3748 121.921 49.5936 121.921M269.53 121.921 265.311 121.921 265.317 121.921" stroke="#000000" stroke-width="0.468748" fill="none" transform="scale(1.00173 1)"/><text font-family="Arial,Arial_MSFontService,sans-serif" font-weight="400" font-size="16" transform="matrix(0.469561 0 0 0.46875 13.8521 124)">-</text><text font-family="Arial,Arial_MSFontService,sans-serif" font-weight="400" font-size="16" transform="matrix(0.469561 0 0 0.46875 16.1999 124)">458600</text><path d="M45.3748 83.9059 49.5936 83.9059M269.53 83.9059 265.311 83.9059 265.317 83.9059" stroke="#000000" stroke-width="0.468748" fill="none" transform="scale(1.00173 1)"/><text font-family="Arial,Arial_MSFontService,sans-serif" font-weight="400" font-size="16" transform="matrix(0.469561 0 0 0.46875 13.8521 86)">-</text><text font-family="Arial,Arial_MSFontService,sans-serif" font-weight="400" font-size="16" transform="matrix(0.469561 0 0 0.46875 16.1999 86)">458550</text><path d="M45.3748 45.8436 49.5936 45.8436M269.53 45.8436 265.311 45.8436 265.317 45.8436" stroke="#000000" stroke-width="0.468748" fill="none" transform="scale(1.00173 1)"/><text font-family="Arial,Arial_MSFontService,sans-serif" font-weight="400" font-size="16" transform="matrix(0.469561 0 0 0.46875 13.8521 48)">-</text><text font-family="Arial,Arial_MSFontService,sans-serif" font-weight="400" font-size="16" transform="matrix(0.469561 0 0 0.46875 16.1999 48)">458500</text><path d="M45.3748 7.82809 49.5936 7.82809M269.53 7.82809 265.311 7.82809 265.317 7.82809" stroke="#000000" stroke-width="0.468748" fill="none" transform="scale(1.00173 1)"/><text font-family="Arial,Arial_MSFontService,sans-serif" font-weight="400" font-size="16" transform="matrix(0.469561 0 0 0.46875 13.8521 10)">-</text><text font-family="Arial,Arial_MSFontService,sans-serif" font-weight="400" font-size="16" transform="matrix(0.469561 0 0 0.46875 16.1999 10)">458450</text><path d="M45.3748 197.999 45.3748 193.78M45.3748 7.82809 45.3748 12.0468 45.3794 12.0468" stroke="#000000" stroke-width="0.468748" fill="none" transform="scale(1.00173 1)"/><text font-family="Arial,Arial_MSFontService,sans-serif" font-weight="400" font-size="16" transform="matrix(0.469561 0 0 0.46875 39.1145 209)">100</text><path d="M70.2653 197.999 70.2653 193.78M70.2653 7.82809 70.2653 12.0468 70.27 12.0468" stroke="#000000" stroke-width="0.468748" fill="none" transform="scale(1.00173 1)"/><text font-family="Arial,Arial_MSFontService,sans-serif" font-weight="400" font-size="16" transform="matrix(0.469561 0 0 0.46875 64.0478 209)">200</text><path d="M95.2027 197.999 95.2027 193.78M95.2027 7.82809 95.2027 12.0468 95.2074 12.0468" stroke="#000000" stroke-width="0.468748" fill="none" transform="scale(1.00173 1)"/><text font-family="Arial,Arial_MSFontService,sans-serif" font-weight="400" font-size="16" transform="matrix(0.469561 0 0 0.46875 89.0292 209)">300</text><path d="M120.093 197.999 120.093 193.78M120.093 7.82809 120.093 12.0468 120.098 12.0468" stroke="#000000" stroke-width="0.468748" fill="none" transform="scale(1.00173 1)"/><text font-family="Arial,Arial_MSFontService,sans-serif" font-weight="400" font-size="16" transform="matrix(0.469561 0 0 0.46875 113.962 209)">400</text><path d="M144.984 197.999 144.984 193.78M144.984 7.82809 144.984 12.0468 144.988 12.0468" stroke="#000000" stroke-width="0.468748" fill="none" transform="scale(1.00173 1)"/><text font-family="Arial,Arial_MSFontService,sans-serif" font-weight="400" font-size="16" transform="matrix(0.469561 0 0 0.46875 138.896 209)">500</text><path d="M169.921 197.999 169.921 193.78M169.921 7.82809 169.921 12.0468 169.926 12.0468" stroke="#000000" stroke-width="0.468748" fill="none" transform="scale(1.00173 1)"/><text font-family="Arial,Arial_MSFontService,sans-serif" font-weight="400" font-size="16" transform="matrix(0.469561 0 0 0.46875 163.877 209)">600</text><path d="M194.812 197.999 194.812 193.78M194.812 7.82809 194.812 12.0468 194.816 12.0468" stroke="#000000" stroke-width="0.468748" fill="none" transform="scale(1.00173 1)"/><text font-family="Arial,Arial_MSFontService,sans-serif" font-weight="400" font-size="16" transform="matrix(0.469561 0 0 0.46875 188.81 209)">700</text><path d="M219.702 197.999 219.702 193.78M219.702 7.82809 219.702 12.0468 219.708 12.0468" stroke="#000000" stroke-width="0.468748" fill="none" transform="scale(1.00173 1)"/><text font-family="Arial,Arial_MSFontService,sans-serif" font-weight="400" font-size="16" transform="matrix(0.469561 0 0 0.46875 213.745 209)">800</text><path d="M244.64 197.999 244.64 193.78M244.64 7.82809 244.64 12.0468 244.644 12.0468" stroke="#000000" stroke-width="0.468748" fill="none" transform="scale(1.00173 1)"/><text font-family="Arial,Arial_MSFontService,sans-serif" font-weight="400" font-size="16" transform="matrix(0.469561 0 0 0.46875 238.725 209)">900</text><path d="M269.53 197.999 269.53 193.78M269.53 7.82809 269.53 12.0468 269.536 12.0468" stroke="#000000" stroke-width="0.468748" fill="none" transform="scale(1.00173 1)"/><text font-family="Arial,Arial_MSFontService,sans-serif" font-weight="400" font-size="16" transform="matrix(0.469561 0 0 0.46875 261.546 209)">1000</text><path d="M45.3748 7.82809 45.3748 197.999 269.53 197.999 269.53 7.82809 45.3748 7.82809ZM45.3748 7.82809 45.3794 7.82809" stroke="#000000" stroke-width="0.468748" fill="none" transform="scale(1.00173 1)"/><text font-family="Arial,Arial_MSFontService,sans-serif" font-weight="400" font-size="16" transform="matrix(-8.62569e-17 -0.46875 0.469561 -8.6108e-17 8.26428 122)">energy </text><text font-family="Arial,Arial_MSFontService,sans-serif" font-weight="400" font-size="16" transform="matrix(-8.62569e-17 -0.46875 0.469561 -8.6108e-17 8.26428 98)">(</text><text font-family="Arial,Arial_MSFontService,sans-serif" font-weight="400" font-size="16" transform="matrix(-8.62569e-17 -0.46875 0.469561 -8.6108e-17 8.26428 96)">eV</text><text font-family="Arial,Arial_MSFontService,sans-serif" font-weight="400" font-size="16" transform="matrix(-8.62569e-17 -0.46875 0.469561 -8.6108e-17 8.26428 86)">)</text><text font-family="Arial,Arial_MSFontService,sans-serif" font-weight="400" font-size="16" transform="matrix(0.469561 0 0 0.46875 132.134 221)">temperature </text><text font-family="Arial,Arial_MSFontService,sans-serif" font-weight="400" font-size="16" transform="matrix(0.469561 0 0 0.46875 173.456 221)">(</text><text font-family="Arial,Arial_MSFontService,sans-serif" font-weight="400" font-size="16" transform="matrix(0.469561 0 0 0.46875 175.803 221)">K</text><text font-family="Arial,Arial_MSFontService,sans-serif" font-weight="400" font-size="16" transform="matrix(0.469561 0 0 0.46875 180.969 221)">)</text><path d="M45.3748 191.485 70.2653 186.093 95.2027 180.281 120.093 174.796 144.984 176.999 169.921 193.406 194.812 183.14 219.702 78.4216 244.64 44.5779 269.53 27.7499 269.536 27.7499" stroke="#FF0000" stroke-width="0.468748" fill="none" transform="scale(1.00173 1)"/><path d="M2.10937 0C2.10937 1.16497 1.16497 2.10937 -4.68374e-16 2.10937-1.16497 2.10937-2.10937 1.16497-2.10937 2.34187e-16-2.10937-1.16497-1.16497-2.10937 -2.34187e-16-2.10937 1.16497-2.10937 2.10937-1.16497 2.10937 0Z" stroke="#FF0000" stroke-width="0.468279" fill="none" transform="matrix(1.00173 0 0 1 45.4535 191.485)"/><path d="M2.10937 0C2.10937 1.16497 1.16497 2.10937 -4.68374e-16 2.10937-1.16497 2.10937-2.10937 1.16497-2.10937 2.34187e-16-2.10937-1.16497-1.16497-2.10937 -2.34187e-16-2.10937 1.16497-2.10937 2.10937-1.16497 2.10937 0Z" stroke="#FF0000" stroke-width="0.468279" fill="none" transform="matrix(1.00173 0 0 1 70.3878 186.094)"/><path d="M2.10937 0C2.10937 1.16497 1.16497 2.10937 -4.68374e-16 2.10937-1.16497 2.10937-2.10937 1.16497-2.10937 2.34187e-16-2.10937-1.16497-1.16497-2.10937 -2.34187e-16-2.10937 1.16497-2.10937 2.10937-1.16497 2.10937 0Z" stroke="#FF0000" stroke-width="0.468279" fill="none" transform="matrix(1.00173 0 0 1 95.3674 180.281)"/><path d="M2.10937 0C2.10937 1.16497 1.16497 2.10937 -4.68374e-16 2.10937-1.16497 2.10937-2.10937 1.16497-2.10937 2.34187e-16-2.10937-1.16497-1.16497-2.10937 -2.34187e-16-2.10937 1.16497-2.10937 2.10937-1.16497 2.10937 0Z" stroke="#FF0000" stroke-width="0.468279" fill="none" transform="matrix(1.00173 0 0 1 120.302 174.796)"/><path d="M2.10937 0C2.10937 1.16497 1.16497 2.10937 -4.68374e-16 2.10937-1.16497 2.10937-2.10937 1.16497-2.10937 2.34187e-16-2.10937-1.16497-1.16497-2.10937 -2.34187e-16-2.10937 1.16497-2.10937 2.10937-1.16497 2.10937 0Z" stroke="#FF0000" stroke-width="0.468279" fill="none" transform="matrix(1.00173 0 0 1 145.236 177)"/><path d="M2.10937 0C2.10937 1.16497 1.16497 2.10937 -4.68374e-16 2.10937-1.16497 2.10937-2.10937 1.16497-2.10937 2.34187e-16-2.10937-1.16497-1.16497-2.10937 -2.34187e-16-2.10937 1.16497-2.10937 2.10937-1.16497 2.10937 0Z" stroke="#FF0000" stroke-width="0.468279" fill="none" transform="matrix(1.00173 0 0 1 170.215 193.406)"/><path d="M2.10937 0C2.10937 1.16497 1.16497 2.10937 -4.68374e-16 2.10937-1.16497 2.10937-2.10937 1.16497-2.10937 2.34187e-16-2.10937-1.16497-1.16497-2.10937 -2.34187e-16-2.10937 1.16497-2.10937 2.10937-1.16497 2.10937 0Z" stroke="#FF0000" stroke-width="0.468279" fill="none" transform="matrix(1.00173 0 0 1 195.15 183.141)"/><path d="M2.10937 0C2.10937 1.16497 1.16497 2.10937 -4.68374e-16 2.10937-1.16497 2.10937-2.10937 1.16497-2.10937 2.34187e-16-2.10937-1.16497-1.16497-2.10937 -2.34187e-16-2.10937 1.16497-2.10937 2.10937-1.16497 2.10937 0Z" stroke="#FF0000" stroke-width="0.468279" fill="none" transform="matrix(1.00173 0 0 1 220.083 78.4222)"/><path d="M2.10937 0C2.10937 1.16497 1.16497 2.10937 -4.68374e-16 2.10937-1.16497 2.10937-2.10937 1.16497-2.10937 2.34187e-16-2.10937-1.16497-1.16497-2.10937 -2.34187e-16-2.10937 1.16497-2.10937 2.10937-1.16497 2.10937 0Z" stroke="#FF0000" stroke-width="0.468279" fill="none" transform="matrix(1.00173 0 0 1 245.065 44.5778)"/><path d="M2.10937 0C2.10937 1.16497 1.16497 2.10937 -4.68374e-16 2.10937-1.16497 2.10937-2.10937 1.16497-2.10937 2.34187e-16-2.10937-1.16497-1.16497-2.10937 -2.34187e-16-2.10937 1.16497-2.10937 2.10937-1.16497 2.10937 0Z" stroke="#FF0000" stroke-width="0.468279" fill="none" transform="matrix(1.00173 0 0 1 269.998 27.75)"/><path d="M45.3748 7.82809 45.3748 197.999 269.53 197.999 269.53 7.82809 45.3748 7.82809ZM45.3748 7.82809 45.3794 7.82809" stroke="#000000" stroke-width="0.468748" fill="none" transform="scale(1.00173 1)"/><text font-family="Yu Gothic,Yu Gothic_MSFontService,sans-serif" font-weight="400" font-size="55" transform="matrix(0.185597 0 0 0.185185 68.7137 31)">Ge</text><text font-family="Yu Gothic,Yu Gothic_MSFontService,sans-serif" font-weight="400" font-size="37" transform="matrix(0.185597 0 0 0.185185 81.9004 33)">2</text><text font-family="Yu Gothic,Yu Gothic_MSFontService,sans-serif" font-weight="400" font-size="55" transform="matrix(0.185597 0 0 0.185185 85.7274 31)">Sb</text><text font-family="Yu Gothic,Yu Gothic_MSFontService,sans-serif" font-weight="400" font-size="37" transform="matrix(0.185597 0 0 0.185185 98.0622 33)">2</text><text font-family="Yu Gothic,Yu Gothic_MSFontService,sans-serif" font-weight="400" font-size="55" transform="matrix(0.185597 0 0 0.185185 101.889 31)">Te</text><text font-family="Yu Gothic,Yu Gothic_MSFontService,sans-serif" font-weight="400" font-size="37" transform="matrix(0.185597 0 0 0.185185 114.012 33)">5</text><text font-family="Yu Gothic,Yu Gothic_MSFontService,sans-serif" font-weight="400" font-size="55" transform="matrix(0.185597 0 0 0.185185 49.5725 156)">アモルファス</text><path d="M171.651 327.935 236.596 327.935 236.596 328.361 171.651 328.361ZM172.5 330.694 167.407 328.148 172.5 325.602ZM235.748 325.602 240.841 328.148 235.748 330.694Z" transform="matrix(1.00223 0 0 1 -122.309 -164.074)"/><text font-family="Yu Gothic,Yu Gothic_MSFontService,sans-serif" font-weight="400" font-size="64" transform="matrix(0.185597 0 0 0.185185 147.041 161)">(</text><text font-family="Yu Gothic,Yu Gothic_MSFontService,sans-serif" font-weight="400" font-size="64" transform="matrix(0.185597 0 0 0.185185 151.613 161)">多</text><text font-family="Yu Gothic,Yu Gothic_MSFontService,sans-serif" font-weight="400" font-size="64" transform="matrix(0.185597 0 0 0.185185 163.522 161)">)</text><text font-family="Yu Gothic,Yu Gothic_MSFontService,sans-serif" font-weight="400" font-size="64" transform="matrix(0.185597 0 0 0.185185 168.094 161)">結晶</text><path d="M272.207 331.083 313.365 331.083 313.365 331.509 272.207 331.509ZM273.056 333.843 267.963 331.296 273.056 328.75ZM312.517 328.75 317.609 331.296 312.517 333.843Z" transform="matrix(1.00223 0 0 1 -122.309 -164.074)"/><text font-family="Yu Gothic,Yu Gothic_MSFontService,sans-serif" font-weight="400" font-size="64" transform="matrix(0.185597 0 0 0.185185 235.707 94)">液体</text><path d="M351.652 239.417 385.335 239.417 385.335 239.843 351.652 239.843ZM352.5 242.176 347.407 239.63 352.5 237.083ZM384.485 237.083 389.578 239.63 384.485 242.176Z" transform="matrix(1.00223 0 0 1 -122.309 -164.074)"/></g></svg>