<svg width="333" height="267" xmlns="http://www.w3.org/2000/svg" xmlns:xlink="http://www.w3.org/1999/xlink" xml:space="preserve" overflow="hidden"><g><path d="M53.724 234.432 58.719 234.432M319.125 234.432 314.13 234.432 314.136 234.432" stroke="#000000" stroke-width="0.555" fill="none" transform="scale(1 1.00225)"/><text font-family="Arial,Arial_MSFontService,sans-serif" font-weight="400" font-size="16" transform="matrix(0.555 0 0 0.55625 16.3725 237)">-</text><text font-family="Arial,Arial_MSFontService,sans-serif" font-weight="400" font-size="16" transform="matrix(0.555 0 0 0.55625 19.1475 237)">458700</text><path d="M53.724 209.401 58.719 209.401M319.125 209.401 314.13 209.401 314.136 209.401" stroke="#000000" stroke-width="0.555" fill="none" transform="scale(1 1.00225)"/><text font-family="Arial,Arial_MSFontService,sans-serif" font-weight="400" font-size="16" transform="matrix(0.555 0 0 0.55625 16.3725 212)">-</text><text font-family="Arial,Arial_MSFontService,sans-serif" font-weight="400" font-size="16" transform="matrix(0.555 0 0 0.55625 19.1475 212)">458695</text><path d="M53.724 184.371 58.719 184.371M319.125 184.371 314.13 184.371 314.136 184.371" stroke="#000000" stroke-width="0.555" fill="none" transform="scale(1 1.00225)"/><text font-family="Arial,Arial_MSFontService,sans-serif" font-weight="400" font-size="16" transform="matrix(0.555 0 0 0.55625 16.3725 187)">-</text><text font-family="Arial,Arial_MSFontService,sans-serif" font-weight="400" font-size="16" transform="matrix(0.555 0 0 0.55625 19.1475 187)">458690</text><path d="M53.724 159.396 58.719 159.396M319.125 159.396 314.13 159.396 314.136 159.396" stroke="#000000" stroke-width="0.555" fill="none" transform="scale(1 1.00225)"/><text font-family="Arial,Arial_MSFontService,sans-serif" font-weight="400" font-size="16" transform="matrix(0.555 0 0 0.55625 16.3725 162)">-</text><text font-family="Arial,Arial_MSFontService,sans-serif" font-weight="400" font-size="16" transform="matrix(0.555 0 0 0.55625 19.1475 162)">458685</text><path d="M53.724 134.366 58.719 134.366M319.125 134.366 314.13 134.366 314.136 134.366" stroke="#000000" stroke-width="0.555" fill="none" transform="scale(1 1.00225)"/><text font-family="Arial,Arial_MSFontService,sans-serif" font-weight="400" font-size="16" transform="matrix(0.555 0 0 0.55625 16.3725 137)">-</text><text font-family="Arial,Arial_MSFontService,sans-serif" font-weight="400" font-size="16" transform="matrix(0.555 0 0 0.55625 19.1475 137)">458680</text><path d="M53.724 109.335 58.719 109.335M319.125 109.335 314.13 109.335 314.136 109.335" stroke="#000000" stroke-width="0.555" fill="none" transform="scale(1 1.00225)"/><text font-family="Arial,Arial_MSFontService,sans-serif" font-weight="400" font-size="16" transform="matrix(0.555 0 0 0.55625 16.3725 112)">-</text><text font-family="Arial,Arial_MSFontService,sans-serif" font-weight="400" font-size="16" transform="matrix(0.555 0 0 0.55625 19.1475 112)">458675</text><path d="M53.724 84.3045 58.719 84.3045M319.125 84.3045 314.13 84.3045 314.136 84.3045" stroke="#000000" stroke-width="0.555" fill="none" transform="scale(1 1.00225)"/><text font-family="Arial,Arial_MSFontService,sans-serif" font-weight="400" font-size="16" transform="matrix(0.555 0 0 0.55625 16.3725 87)">-</text><text font-family="Arial,Arial_MSFontService,sans-serif" font-weight="400" font-size="16" transform="matrix(0.555 0 0 0.55625 19.1475 87)">458670</text><path d="M53.724 59.3295 58.719 59.3295M319.125 59.3295 314.13 59.3295 314.136 59.3295" stroke="#000000" stroke-width="0.555" fill="none" transform="scale(1 1.00225)"/><text font-family="Arial,Arial_MSFontService,sans-serif" font-weight="400" font-size="16" transform="matrix(0.555 0 0 0.55625 16.3725 62)">-</text><text font-family="Arial,Arial_MSFontService,sans-serif" font-weight="400" font-size="16" transform="matrix(0.555 0 0 0.55625 19.1475 62)">458665</text><path d="M53.724 34.299 58.719 34.299M319.125 34.299 314.13 34.299 314.136 34.299" stroke="#000000" stroke-width="0.555" fill="none" transform="scale(1 1.00225)"/><text font-family="Arial,Arial_MSFontService,sans-serif" font-weight="400" font-size="16" transform="matrix(0.555 0 0 0.55625 16.3725 37)">-</text><text font-family="Arial,Arial_MSFontService,sans-serif" font-weight="400" font-size="16" transform="matrix(0.555 0 0 0.55625 19.1475 37)">458660</text><path d="M53.724 9.2685 58.719 9.2685M319.125 9.2685 314.13 9.2685 314.136 9.2685" stroke="#000000" stroke-width="0.555" fill="none" transform="scale(1 1.00225)"/><text font-family="Arial,Arial_MSFontService,sans-serif" font-weight="400" font-size="16" transform="matrix(0.555 0 0 0.55625 16.3725 12)">-</text><text font-family="Arial,Arial_MSFontService,sans-serif" font-weight="400" font-size="16" transform="matrix(0.555 0 0 0.55625 19.1475 12)">458655</text><path d="M53.724 234.432 53.724 229.437M53.724 9.2685 53.724 14.2635 53.7295 14.2635" stroke="#000000" stroke-width="0.555" fill="none" transform="scale(1 1.00225)"/><text font-family="Arial,Arial_MSFontService,sans-serif" font-weight="400" font-size="16" transform="matrix(0.555 0 0 0.55625 51.2265 247)">1</text><path d="M106.782 234.432 106.782 229.437M106.782 9.2685 106.782 14.2635 106.788 14.2635" stroke="#000000" stroke-width="0.555" fill="none" transform="scale(1 1.00225)"/><text font-family="Arial,Arial_MSFontService,sans-serif" font-weight="400" font-size="16" transform="matrix(0.555 0 0 0.55625 100.677 247)">1</text><text font-family="Arial,Arial_MSFontService,sans-serif" font-weight="400" font-size="16" transform="matrix(0.555 0 0 0.55625 105.672 247)">.</text><text font-family="Arial,Arial_MSFontService,sans-serif" font-weight="400" font-size="16" transform="matrix(0.555 0 0 0.55625 107.892 247)">2</text><path d="M159.896 234.432 159.896 229.437M159.896 9.2685 159.896 14.2635 159.901 14.2635" stroke="#000000" stroke-width="0.555" fill="none" transform="scale(1 1.00225)"/><text font-family="Arial,Arial_MSFontService,sans-serif" font-weight="400" font-size="16" transform="matrix(0.555 0 0 0.55625 153.79 247)">1</text><text font-family="Arial,Arial_MSFontService,sans-serif" font-weight="400" font-size="16" transform="matrix(0.555 0 0 0.55625 158.786 247)">.</text><text font-family="Arial,Arial_MSFontService,sans-serif" font-weight="400" font-size="16" transform="matrix(0.555 0 0 0.55625 161.005 247)">4</text><path d="M212.954 234.432 212.954 229.437M212.954 9.2685 212.954 14.2635 212.959 14.2635" stroke="#000000" stroke-width="0.555" fill="none" transform="scale(1 1.00225)"/><text font-family="Arial,Arial_MSFontService,sans-serif" font-weight="400" font-size="16" transform="matrix(0.555 0 0 0.55625 206.848 247)">1</text><text font-family="Arial,Arial_MSFontService,sans-serif" font-weight="400" font-size="16" transform="matrix(0.555 0 0 0.55625 211.844 247)">.</text><text font-family="Arial,Arial_MSFontService,sans-serif" font-weight="400" font-size="16" transform="matrix(0.555 0 0 0.55625 214.064 247)">6</text><path d="M266.067 234.432 266.067 229.437M266.067 9.2685 266.067 14.2635 266.073 14.2635" stroke="#000000" stroke-width="0.555" fill="none" transform="scale(1 1.00225)"/><text font-family="Arial,Arial_MSFontService,sans-serif" font-weight="400" font-size="16" transform="matrix(0.555 0 0 0.55625 259.962 247)">1</text><text font-family="Arial,Arial_MSFontService,sans-serif" font-weight="400" font-size="16" transform="matrix(0.555 0 0 0.55625 264.957 247)">.</text><text font-family="Arial,Arial_MSFontService,sans-serif" font-weight="400" font-size="16" transform="matrix(0.555 0 0 0.55625 267.177 247)">8</text><path d="M319.125 234.432 319.125 229.437M319.125 9.2685 319.125 14.2635 319.131 14.2635" stroke="#000000" stroke-width="0.555" fill="none" transform="scale(1 1.00225)"/><text font-family="Arial,Arial_MSFontService,sans-serif" font-weight="400" font-size="16" transform="matrix(0.555 0 0 0.55625 316.628 247)">2</text><path d="M53.724 9.2685 53.724 234.432 319.125 234.432 319.125 9.2685 53.724 9.2685ZM53.724 9.2685 53.7295 9.2685" stroke="#000000" stroke-width="0.555" fill="none" transform="scale(1 1.00225)"/><text font-family="Arial,Arial_MSFontService,sans-serif" font-weight="400" font-size="16" transform="matrix(-1.01952e-16 -0.55625 0.555 -1.02181e-16 9.768 145)">energy </text><text font-family="Arial,Arial_MSFontService,sans-serif" font-weight="400" font-size="16" transform="matrix(-1.01952e-16 -0.55625 0.555 -1.02181e-16 9.768 116)">(</text><text font-family="Arial,Arial_MSFontService,sans-serif" font-weight="400" font-size="16" transform="matrix(-1.01952e-16 -0.55625 0.555 -1.02181e-16 9.768 114)">eV</text><text font-family="Arial,Arial_MSFontService,sans-serif" font-weight="400" font-size="16" transform="matrix(-1.01952e-16 -0.55625 0.555 -1.02181e-16 9.768 102)">)</text><text font-family="Arial,Arial_MSFontService,sans-serif" font-weight="400" font-size="16" transform="matrix(0.555 0 0 0.55625 169.775 262)">time </text><text font-family="Arial,Arial_MSFontService,sans-serif" font-weight="400" font-size="16" transform="matrix(0.555 0 0 0.55625 188.645 262)">(</text><text font-family="Arial,Arial_MSFontService,sans-serif" font-weight="400" font-size="16" transform="matrix(0.555 0 0 0.55625 191.419 262)">ns</text><text font-family="Arial,Arial_MSFontService,sans-serif" font-weight="400" font-size="16" transform="matrix(0.555 0 0 0.55625 200.299 262)">)</text><path d="M53.724 60.9945 53.835 29.859 53.946 46.842 54.057 42.3465 54.168 47.952 54.279 37.5735 54.3345 41.1255 54.4455 24.753 54.5565 61.3275 54.6675 52.4475 54.7785 52.392 54.8895 52.2255 55.0005 42.6795 55.1115 33.2445 55.2225 34.743 55.3335 53.058 55.4445 40.848 55.5555 52.503 55.611 44.844 55.722 48.7845 55.833 37.7955 55.944 36.297 56.055 41.736 56.166 53.4465 56.277 29.748 56.388 50.727 56.499 41.736 56.61 46.3425 56.721 45.621 56.7765 33.3555 56.8875 25.1415 56.9985 50.1165 57.1095 40.959 57.2205 41.736 57.3315 32.634 57.4425 39.516 57.5535 42.0135 57.6645 36.4635 57.7755 37.629 57.8865 50.6715 57.9975 37.5735 58.053 75.036 58.164 36.963 58.275 56.61 58.386 24.753 58.497 45.288 58.608 32.967 58.719 38.295 58.83 53.835 58.941 32.745 59.052 55.056 59.163 23.421 59.2185 36.408 59.3295 39.4605 59.4405 36.963 59.5515 54.39 59.6625 39.4605 59.7735 55.833 59.8845 23.199 59.9955 48.618 60.1065 26.8065 60.2175 60.8835 60.3285 42.2355 60.4395 32.4675 60.495 42.18 60.606 39.0165 60.717 64.9905 60.828 40.293 60.939 34.299 61.05 46.065 61.161 25.8075 61.272 33.3555 61.383 34.41 61.494 42.4575 61.605 38.2395 61.6605 39.3495 61.7715 34.4655 61.8825 65.4345 61.9935 29.5815 62.1045 40.5705 62.2155 40.737 62.3265 36.1305 62.4375 48.951 62.5485 23.2545 62.6595 48.2295 62.7705 52.281 62.8815 36.408 62.937 42.9015 63.048 53.2245 63.159 28.305 63.27 43.0125 63.381 53.7795 63.492 35.964 63.603 35.52 63.714 46.6755 63.825 46.176 63.936 36.075 64.047 56.2215 64.1025 49.617 64.2135 55.7775 64.3245 42.2355 64.4355 47.397 64.5465 49.173 64.6575 40.737 64.7685 43.1235 64.8795 56.277 64.9905 34.632 65.1015 61.6605 65.2125 44.5665 65.268 34.521 65.379 43.734 65.49 23.1435 65.601 45.8985 65.712 47.841 65.823 55.7775 65.934 39.516 66.045 59.5515 66.156 45.177 66.267 44.4 66.378 33.189 66.489 43.179 66.5445 33.4665 66.6555 59.9955 66.7665 45.066 66.8775 46.731 66.9885 53.2245 67.0995 33.9105 67.2105 54.834 67.3215 44.3445 67.4325 48.7845 67.5435 40.071 67.6545 46.065 67.71 50.172 67.821 41.514 67.932 44.733 68.043 40.959 68.154 34.1325 68.265 39.516 68.376 45.732 68.487 49.506 68.598 30.525 68.709 48.951 68.82 40.2375 68.931 51.4485 68.9865 38.184 69.0975 56.277 69.2085 32.9115 69.3195 41.514 69.4305 54.2235 69.5415 40.6815 69.6525 46.398 69.7635 50.949 69.8745 47.619 69.9855 39.849 70.0965 61.716 70.152 32.967 70.263 47.0085 70.374 47.8965 70.485 29.0265 70.596 32.5785 70.707 35.0205 70.818 40.737 70.929 42.7905 71.04 36.4635 71.151 46.953 71.262 33.9105 71.373 55.4445 71.4285 33.411 71.5395 35.298 71.6505 58.4415 71.7615 31.1355 71.8725 59.052 71.9835 32.0235 72.0945 40.4595 72.2055 44.067 72.3165 39.072 72.4275 46.6755 72.5385 59.496 72.594 36.519 72.705 46.5645 72.816 34.965 72.927 52.836 73.038 32.0235 73.149 49.173 73.26 46.1205 73.371 35.3535 73.482 51.615 73.593 28.8045 73.704 46.398 73.815 42.846 73.8705 36.3525 73.9815 44.5665 74.0925 59.5515 74.2035 44.5665 74.3145 22.1445 74.4255 52.725 74.5365 36.186 74.6475 38.0175 74.7585 55.722 74.8695 39.0165 74.9805 19.092 75.036 45.51 75.147 36.4635 75.258 41.9025 75.369 33.966 75.48 37.185 75.591 30.1365 75.702 40.0155 75.813 38.517 75.924 29.5815 76.035 43.179 76.146 48.063 76.257 39.849 76.3125 54.279 76.4235 25.974 76.5345 64.047 76.6455 38.9055 76.7565 50.1165 76.8675 18.204 76.9785 54.501 77.0895 41.9025 77.2005 25.8075 77.3115 48.6735 77.4225 35.4645 77.478 48.2295 77.589 30.4695 77.7 44.3445 77.811 30.747 77.922 45.8985 78.033 23.088 78.144 47.2305 78.255 36.4635 78.366 39.9045 78.477 27.8055 78.588 29.3595 78.699 44.0115 78.7545 43.401 78.8655 48.507 78.9765 47.4525 79.0875 51.615 79.1985 26.307 79.3095 55.0005 79.4205 48.2295 79.5315 41.958 79.6425 45.843 79.7535 48.5625 79.8645 57.276 79.92 35.2425 80.031 44.844 80.142 50.5605 80.253 33.3555 80.364 44.1225 80.475 42.513 80.586 63.3255 80.697 42.513 80.808 60.4395 80.919 46.5645 81.03 67.2105 81.141 40.515 81.1965 46.6755 81.3075 51.06 81.4185 44.0115 81.5295 27.528 81.6405 56.499 81.7515 44.511 81.8625 31.191 81.9735 47.5635 82.0845 36.9075 82.1955 55.389 82.3065 28.749 82.362 37.74 82.473 44.622 82.584 51.6705 82.695 36.63 82.806 44.622 82.917 49.1175 83.028 37.5735 83.139 41.403 83.25 41.847 83.361 48.063 83.472 39.2385 83.5275 44.178 83.6385 46.065 83.7495 55.4445 83.8605 41.1255 83.9715 55.833 84.0825 38.2395 84.1935 50.1165 84.3045 52.614 84.4155 42.402 84.5265 54.7785 84.6375 42.513 84.7485 36.519 84.804 49.4505 84.915 44.289 85.026 48.7845 85.137 35.964 85.248 34.077 85.359 48.396 85.47 30.525 85.581 38.295 85.692 35.1315 85.803 62.049 85.914 27.1395 85.9695 25.9185 86.0805 53.613 86.1915 34.6875 86.3025 26.307 86.4135 44.4555 86.5245 73.815 86.6355 34.854 86.7465 41.0145 86.8575 32.6895 86.9685 41.847 87.0795 44.067 87.1905 44.622 87.246 31.6905 87.357 31.0245 87.468 36.9075 87.579 31.746 87.69 45.288 87.801 43.4565 87.912 37.0185 88.023 22.2555 88.134 49.0065 88.245 39.96 88.356 34.9095 88.4115 40.293 88.5225 58.83 88.6335 25.086 88.7445 39.1275 88.8555 37.1295 88.9665 44.289 89.0775 39.405 89.1885 54.612 89.2995 35.6865 89.4105 41.958 89.5215 38.517 89.6325 51.504 89.688 41.0145 89.799 54.39 89.91 33.078 90.021 48.285 90.132 35.4645 90.243 67.044 90.354 37.4625 90.465 39.5715 90.576 49.8945 90.687 43.512 90.798 38.961 90.8535 35.5755 90.9645 20.091 91.0755 50.838 91.1865 31.08 91.2975 50.6715 91.4085 35.4645 91.5195 59.052 91.6305 23.421 91.7415 49.4505 91.8525 36.186 91.9635 29.859 92.0745 39.405 92.13 24.2535 92.241 30.858 92.352 35.964 92.463 56.61 92.574 17.982 92.685 31.635 92.796 47.2305 92.907 21.5895 93.018 44.511 93.129 18.981 93.24 37.962 93.2955 18.9255 93.4065 49.284 93.5175 38.517 93.6285 39.7935 93.7395 40.293 93.8505 39.405 93.9615 28.5825 94.0725 42.3465 94.1835 13.32 94.2945 41.1255 94.4055 24.9195 94.5165 36.741 94.572 44.955 94.683 24.753 94.794 48.6735 94.905 40.182 95.016 42.735 95.127 36.6855 95.238 36.4635 95.349 27.8055 95.46 39.0165 95.571 46.62 95.682 25.53 95.7375 42.846 95.8485 52.2255 95.9595 21.5895 96.0705 42.1245 96.1815 45.1215 96.2925 49.1175 96.4035 50.727 96.5145 43.3455 96.6255 49.395 96.7365 28.194 96.8475 34.41 96.9585 30.6915 97.014 49.5615 97.125 42.1245 97.236 53.2245 97.347 29.748 97.458 43.179 97.569 33.189 97.68 49.0065 97.791 38.517 97.902 51.6705 98.013 43.9005 98.124 48.5625 98.1795 49.173 98.2905 36.4635 98.4015 41.3475 98.5125 45.1215 98.6235 34.5765 98.7345 47.1195 98.8455 27.639 98.9565 57.498 99.0675 36.2415 99.1785 38.4615 99.2895 52.725 99.4005 50.2275 99.456 41.7915 99.567 48.396 99.678 31.3575 99.789 42.7905 99.9 50.7825 100.011 31.302 100.122 50.2275 100.233 37.9065 100.344 41.4585 100.455 59.607 100.566 42.402 100.622 15.9285 100.732 40.1265 100.843 41.292 100.954 57.8865 101.066 48.951 101.177 60.1065 101.287 42.9015 101.398 45.0105 101.509 42.402 101.621 32.4675 101.732 40.7925 101.787 66.489 101.898 33.744 102.009 48.285 102.12 36.63 102.231 47.619 102.342 59.6625 102.453 53.169 102.564 50.505 102.675 53.8905 102.786 62.271 102.897 50.283 103.008 30.8025 103.063 33.411 103.174 67.5435 103.286 43.1235 103.396 35.2425 103.507 57.942 103.618 48.174 103.729 53.8905 103.841 48.729 103.951 51.948 104.062 62.8815 104.174 36.4635 104.229 60.384 104.34 51.171 104.451 67.488 104.562 58.608 104.673 51.5595 104.784 22.977 104.895 67.71 105.006 59.6625 105.117 39.294 105.228 55.9995 105.339 51.615 105.45 43.7895 105.506 55.278 105.617 64.8795 105.728 45.1215 105.839 54.5565 105.95 59.163 106.061 63.381 106.172 53.058 106.283 73.038 106.394 50.727 106.505 59.94 106.616 42.18 106.671 53.2245 106.782 37.1295 106.893 40.4595 107.004 48.729 107.115 39.5715 107.226 40.515 107.337 45.732 107.448 40.737 107.559 48.063 107.67 53.5575 107.781 56.6655 107.892 51.615 107.948 16.9275 108.059 46.842 108.169 43.3455 108.281 54.279 108.392 47.0085 108.503 44.955 108.614 59.6625 108.724 42.291 108.836 51.4485 108.947 46.953 109.058 47.619 109.113 55.4445 109.224 44.955 109.335 55.0005 109.446 61.383 109.557 52.0035 109.668 59.5515 109.779 24.1425 109.89 54.8895 110.001 24.1425 110.112 48.7845 110.223 49.1175 110.334 45.732 110.389 50.6715 110.501 45.5655 110.612 46.065 110.723 40.9035 110.833 59.4405 110.944 37.2405 111.056 54.168 111.167 51.3375 111.278 55.8885 111.388 51.8925 111.499 45.8985 111.555 61.8825 111.666 47.6745 111.777 42.402 111.888 37.7955 111.999 53.0025 112.11 70.0965 112.221 46.842 112.332 35.4645 112.443 42.9015 112.554 31.8015 112.665 43.3455 112.776 17.3715 112.832 48.84 112.943 44.4555 113.053 56.277 113.164 43.179 113.276 50.6715 113.387 44.067 113.498 63.4365 113.608 48.396 113.719 49.95 113.831 51.948 113.942 68.8755 113.997 43.068 114.108 51.4485 114.219 39.405 114.33 51.726 114.441 49.5615 114.552 62.049 114.663 52.0035 114.774 28.194 114.885 56.8875 114.996 29.859 115.107 45.0105 115.218 32.079 115.273 53.8905 115.384 40.848 115.496 53.8905 115.607 55.2225 115.717 22.6995 115.828 43.4565 115.939 58.164 116.051 38.9055 116.162 70.6515 116.272 48.174 116.383 52.17 116.439 50.0055 116.55 44.8995 116.661 60.384 116.772 35.409 116.883 48.6735 116.994 66.4335 117.105 53.4465 117.216 48.5625 117.327 45.843 117.438 33.7995 117.549 68.154 117.66 55.7775 117.716 41.958 117.826 53.169 117.938 45.2325 118.049 30.5805 118.16 54.8895 118.271 37.4625 118.382 39.0165 118.493 54.168 118.604 49.3395 118.715 58.6635 118.826 56.3325 118.881 49.173 118.992 43.512 119.103 30.969 119.214 59.5515 119.325 56.7765 119.436 21.9225 119.547 49.2285 119.658 55.4445 119.769 35.853 119.88 42.1245 119.991 55.944 120.102 68.9865 120.158 61.605 120.269 62.4375 120.38 53.5575 120.491 55.278 120.602 55.389 120.713 57.276 120.824 72.3165 120.935 73.593 121.046 57.72 121.157 67.044 121.268 63.603 121.323 59.829 121.434 63.159 121.545 70.485 121.656 65.7675 121.767 53.502 121.878 63.936 121.989 54.4455 122.1 76.0905 122.211 65.9895 122.322 56.277 122.433 62.715 122.489 90.687 122.599 61.3275 122.711 70.5405 122.822 73.8705 122.933 63.3255 123.044 57.276 123.154 49.617 123.266 57.72 123.377 62.382 123.488 76.479 123.599 56.8875 123.709 76.3125 123.765 36.519 123.876 55.167 123.987 56.9985 124.098 54.168 124.209 57.3315 124.32 48.729 124.431 78.921 124.542 56.1105 124.653 63.714 124.764 54.7785 124.875 56.277 124.931 29.0265 125.042 54.501 125.153 56.61 125.263 76.368 125.374 72.4275 125.486 72.4275 125.597 77.478 125.708 67.6545 125.818 66.045 125.929 56.8875 126.041 61.3275 126.152 73.6485 126.207 51.4485 126.318 77.8665 126.429 55.944 126.54 63.603 126.651 69.597 126.762 56.7765 126.873 72.261 126.984 67.488 127.095 67.9875 127.206 78.5325 127.317 49.8945 127.373 72.372 127.483 63.381 127.594 57.3315 127.706 74.703 127.817 71.484 127.927 51.726 128.038 67.044 128.15 67.7655 128.26 73.5375 128.372 52.836 128.482 74.0925 128.594 42.6795 128.649 57.1095 128.76 67.488 128.871 76.6455 128.982 66.378 129.093 73.038 129.204 51.5595 129.315 68.487 129.426 52.17 129.537 81.03 129.648 61.7715 129.759 74.37 129.814 60.7725 129.926 64.38 130.036 85.7475 130.148 53.613 130.258 66.822 130.369 82.473 130.48 69.8745 130.592 84.693 130.702 57.054 130.814 70.374 130.924 66.4335 131.036 64.4355 131.091 79.1985 131.202 49.506 131.313 72.15 131.424 58.83 131.535 71.484 131.646 62.604 131.757 66.489 131.868 70.7625 131.979 66.6555 132.09 85.4145 132.201 76.2015 132.257 61.5495 132.368 72.0945 132.479 70.5405 132.589 67.266 132.701 81.8625 132.812 70.263 132.923 68.265 133.033 77.478 133.145 60.9945 133.256 75.036 133.367 57.276 133.478 80.3085 133.533 69.2085 133.644 75.591 133.755 72.261 133.866 59.274 133.977 54.6675 134.088 90.354 134.199 60.828 134.31 76.923 134.421 64.8795 134.532 50.727 134.643 68.487 134.699 88.9665 134.809 70.707 134.921 84.693 135.032 61.938 135.143 83.694 135.253 63.7695 135.365 59.718 135.476 63.27 135.587 78.3105 135.697 57.4425 135.809 76.5345 135.919 58.8855 135.975 76.9785 136.086 75.0915 136.197 72.039 136.308 77.589 136.419 69.486 136.53 85.9695 136.641 82.1955 136.752 53.724 136.863 84.7485 136.974 60.939 137.085 55.722 137.141 65.046 137.252 68.2095 137.363 61.827 137.473 75.924 137.585 54.5565 137.696 69.93 137.807 79.698 137.917 66.045 138.029 72.039 138.139 81.807 138.251 69.93 138.361 70.263 138.417 85.8585 138.528 75.48 138.639 43.734 138.75 73.704 138.861 63.4365 138.972 67.7655 139.083 69.375 139.194 77.2005 139.305 73.5375 139.416 54.8895 139.527 67.4325 139.583 71.595 139.693 55.389 139.805 70.6515 139.916 67.044 140.027 80.586 140.137 47.064 140.249 68.6535 140.359 47.619 140.471 61.827 140.581 75.0915 140.693 61.494 140.748 78.144 140.859 66.8775 140.97 59.94 141.081 76.9785 141.192 65.823 141.303 76.5345 141.414 67.9875 141.525 55.0005 141.636 71.706 141.747 63.492 141.858 67.599 141.969 79.92 142.025 51.8925 142.135 64.047 142.246 57.276 142.357 58.4415 142.469 75.591 142.579 49.8945 142.691 75.3135 142.801 39.516 142.913 62.5485 143.024 53.28 143.134 56.7765 143.19 64.4355 143.301 72.15 143.412 63.8805 143.523 78.477 143.634 55.1115 143.745 76.9785 143.856 62.826 143.967 68.265 144.078 65.2125 144.189 73.9815 144.3 36.4635 144.411 77.478 144.466 76.923 144.577 42.1245 144.689 59.7735 144.799 65.9895 144.911 43.9005 145.021 72.927 145.133 42.0135 145.244 57.2205 145.354 63.1035 145.465 55.5555 145.576 66.489 145.632 59.829 145.743 71.595 145.854 64.935 145.965 71.3175 146.076 80.1975 146.187 53.613 146.298 74.148 146.409 80.6415 146.52 76.812 146.631 83.7495 146.742 89.2995 146.853 86.247 146.909 77.3115 147.02 96.2925 147.131 72.3165 147.242 93.129 147.353 70.9845 147.464 91.4085 147.574 57.609 147.686 93.6285 147.796 75.591 147.908 90.0765 148.019 61.7715 148.074 81.474 148.185 78.0885 148.296 78.6435 148.407 84.6375 148.518 76.812 148.629 86.247 148.74 62.493 148.851 99.9555 148.962 68.043 149.073 93.351 149.184 71.9835 149.295 78.588 149.351 49.3395 149.462 71.2065 149.572 95.1825 149.684 79.254 149.794 81.7515 149.906 97.569 150.016 78.9765 150.128 86.58 150.239 83.6385 150.35 94.794 150.461 89.5215 150.516 87.801 150.627 79.7535 150.738 86.4135 150.849 67.3215 150.96 105.395 151.071 86.58 151.182 110.501 151.293 88.8555 151.404 97.7355 151.515 87.135 151.626 104.507 151.737 100.899 151.792 93.7395 151.904 110.168 152.014 103.008 152.126 100.843 152.236 87.246 152.348 108.392 152.459 97.125 152.57 111.943 152.681 115.329 152.791 106.671 152.902 109.724 152.958 109.668 153.069 114.219 153.18 125.652 153.291 111.943 153.402 112.721 153.513 102.064 153.624 118.77 153.735 121.046 153.846 108.78 153.957 108.059 154.068 106.949 154.179 125.652 154.234 131.091 154.346 108.836 154.456 116.606 154.568 108.558 154.679 122.655 154.79 89.022 154.901 123.099 155.011 135.809 155.122 119.714 155.234 115.052 155.344 119.991 155.4 132.423 155.511 111.333 155.622 128.649 155.733 118.548 155.844 111 155.955 103.896 156.066 139.971 156.177 118.826 156.288 122.599 156.399 137.751 156.51 124.653 156.621 129.648 156.676 142.191 156.788 150.239 156.899 138.917 157.01 155.9 157.12 137.862 157.231 137.585 157.342 151.959 157.454 152.348 157.564 155.4 157.676 157.12 157.786 157.509 157.842 151.46 157.953 143.301 158.064 146.354 158.175 139.638 158.286 162.781 158.397 153.346 158.508 152.459 158.619 160.673 158.73 157.398 158.841 178.766 158.952 159.119 159.008 180.264 159.119 177.156 159.229 180.098 159.34 165.556 159.451 189.699 159.562 182.151 159.674 179.764 159.785 188.256 159.896 177.378 160.007 181.263 160.118 188.7 160.229 177.267 160.284 183.372 160.395 171.162 160.506 183.372 160.617 179.043 160.728 181.485 160.839 206.016 160.95 191.198 161.061 176.379 161.172 195.027 161.283 197.025 161.394 198.357 161.449 201.188 161.561 201.076 161.671 194.25 161.783 202.353 161.894 191.087 162.005 202.076 162.116 199.023 162.227 193.085 162.338 207.626 162.449 210.29 162.559 181.929 162.671 204.24 162.726 196.248 162.837 185.759 162.948 210.29 163.059 177.933 163.17 204.684 163.281 194.028 163.392 207.459 163.503 209.512 163.614 192.696 163.725 190.976 163.836 172.161 163.891 199.411 164.003 211.233 164.114 200.577 164.225 194.028 164.336 211.511 164.447 197.746 164.557 197.525 164.669 206.127 164.779 197.58 164.891 194.472 165.001 200.189 165.113 200.744 165.168 182.872 165.279 196.415 165.39 195.416 165.501 206.46 165.612 192.529 165.723 204.462 165.834 196.248 165.945 196.081 166.056 196.137 166.167 173.215 166.278 196.581 166.334 180.819 166.445 175.38 166.556 195.526 166.666 188.201 166.777 196.692 166.889 199.523 166.999 198.079 167.111 204.74 167.221 184.649 167.333 202.186 167.444 187.146 167.555 194.028 167.61 197.691 167.721 197.58 167.832 193.196 167.943 204.629 168.054 186.869 168.165 207.015 168.276 182.373 168.387 206.182 168.498 188.478 168.609 194.028 168.72 210.29 168.776 194.139 168.886 200.521 168.997 195.138 169.109 210.511 169.219 186.646 169.331 201.798 169.441 186.48 169.553 204.962 169.664 203.019 169.775 195.749 169.885 199.301 169.996 189.366 170.052 205.628 170.163 186.202 170.274 200.744 170.385 188.423 170.496 199.134 170.607 206.793 170.718 194.527 170.829 193.362 170.94 215.118 171.051 190.199 171.162 199.966 171.217 204.74 171.329 189.866 171.439 187.59 171.551 207.681 171.661 191.419 171.773 195.027 171.884 198.246 171.994 205.128 172.105 185.092 172.216 206.516 172.327 197.58 172.439 201.243 172.494 194.583 172.605 219.669 172.716 200.133 172.827 183.15 172.938 204.573 173.049 197.136 173.16 190.365 173.271 198.135 173.382 192.918 173.493 199.356 173.604 201.854 173.66 197.081 173.771 183.094 173.882 198.246 173.993 181.707 174.104 204.962 174.214 195.693 174.326 198.246 174.436 198.191 174.548 196.137 174.659 210.511 174.77 189.366 174.881 206.626 174.936 179.21 175.047 190.143 175.158 211.011 175.269 195.194 175.38 197.857 175.491 193.251 175.602 184.149 175.713 197.913 175.824 184.76 175.935 205.739 176.046 210.068 176.102 187.035 176.213 222.499 176.324 192.03 176.434 196.47 176.546 191.031 176.656 205.017 176.768 175.214 176.879 200.633 176.99 191.309 177.101 200.633 177.212 202.02 177.267 206.626 177.378 196.47 177.489 197.525 177.6 201.132 177.711 191.641 177.822 205.572 177.933 194.25 178.044 183.15 178.155 183.65 178.266 203.352 178.377 197.691 178.488 200.799 178.544 190.476 178.654 190.254 178.766 200.854 178.876 198.468 178.988 200.521 179.099 215.784 179.21 197.746 179.321 201.41 179.431 187.757 179.542 200.189 179.654 194.028 179.709 198.745 179.82 200.077 179.931 206.96 180.042 195.526 180.153 211.122 180.264 194.028 180.375 206.571 180.486 203.296 180.597 202.964 180.708 206.682 180.819 205.739 180.93 188.423 180.986 214.896 181.096 195.027 181.208 219.114 181.319 194.361 181.43 196.47 181.541 167.333 181.651 210.789 181.762 180.486 181.874 207.736 181.984 196.803 182.096 209.346 182.151 184.926 182.262 211.954 182.373 196.304 182.484 203.074 182.595 190.754 182.706 211.511 182.817 196.747 182.928 205.794 183.039 204.795 183.15 176.768 183.261 203.963 183.372 189.477 183.428 210.012 183.539 185.869 183.65 203.685 183.761 208.402 183.871 187.035 183.982 204.129 184.094 208.236 184.204 200.744 184.316 194.805 184.426 211.289 184.538 198.413 184.593 208.624 184.704 203.408 184.815 218.615 184.926 205.961 185.037 195.582 185.148 181.152 185.259 197.636 185.37 192.529 185.481 195.637 185.592 195.305 185.703 198.69 185.814 206.016 185.869 194.971 185.98 194.916 186.091 195.194 186.202 183.316 186.314 210.789 186.424 201.798 186.536 178.988 186.646 200.077 186.758 200.077 186.869 207.348 186.979 196.747 187.035 196.248 187.146 211.788 187.257 200.189 187.368 201.743 187.479 200.965 187.59 197.58 187.701 207.348 187.812 205.516 187.923 197.358 188.034 201.188 188.145 195.027 188.256 203.296 188.311 205.35 188.423 204.906 188.534 214.174 188.645 190.476 188.756 193.806 188.867 205.128 188.978 212.842 189.089 195.582 189.199 183.871 189.311 220.557 189.421 201.632 189.477 210.678 189.588 202.797 189.699 183.483 189.81 199.134 189.921 192.363 190.032 187.923 190.143 209.235 190.254 189.533 190.365 210.9 190.476 189.033 190.587 203.463 190.698 200.965 190.754 201.132 190.865 190.587 190.976 206.238 191.087 196.803 191.198 190.976 191.309 187.979 191.419 208.958 191.531 186.536 191.641 202.686 191.753 189.311 191.864 199.689 191.919 190.309 192.03 194.861 192.141 206.96 192.252 201.354 192.363 204.184 192.474 184.538 192.585 205.572 192.696 190.476 192.807 205.905 192.918 197.746 193.029 204.074 193.14 191.309 193.196 210.123 193.307 202.797 193.417 202.742 193.529 198.524 193.639 206.349 193.751 203.796 193.861 198.801 193.973 197.58 194.084 206.294 194.195 191.697 194.306 196.803 194.361 222.166 194.472 196.026 194.583 207.292 194.694 188.034 194.805 201.076 194.916 202.797 195.027 190.088 195.138 219.059 195.249 202.464 195.36 224.331 195.471 196.747 195.582 192.307 195.637 208.736 195.749 208.68 195.859 183.982 195.971 202.686 196.081 211.788 196.193 199.8 196.304 214.008 196.415 191.253 196.526 205.184 196.636 195.859 196.747 213.342 196.803 195.526 196.914 199.689 197.025 194.861 197.136 194.361 197.247 207.182 197.358 193.917 197.469 211.677 197.58 201.188 197.691 204.296 197.802 210.012 197.913 197.525 197.969 199.189 198.079 210.622 198.191 195.138 198.301 194.527 198.413 194.639 198.524 213.62 198.635 205.35 198.745 201.798 198.856 203.741 198.967 194.416 199.079 214.23 199.189 200.577 199.245 202.686 199.356 201.465 199.467 213.453 199.578 192.585 199.689 206.016 199.8 211.954 199.911 203.463 200.022 191.364 200.133 198.413 200.244 216.506 200.355 200.744 200.411 214.674 200.521 203.186 200.633 204.406 200.744 198.357 200.854 190.698 200.965 200.022 201.076 199.189 201.188 194.861 201.299 216.228 201.41 193.973 201.521 209.291 201.632 186.424 201.687 203.296 201.798 197.857 201.909 194.361 202.02 200.688 202.131 202.02 202.242 208.624 202.353 196.692 202.464 200.854 202.575 207.126 202.686 211.344 202.797 193.307 202.853 195.693 202.964 193.029 203.074 203.408 203.186 198.024 203.296 211.844 203.408 192.807 203.519 212.343 203.63 194.028 203.741 203.408 203.852 201.354 203.963 172.216 204.074 218.448 204.129 196.47 204.24 212.454 204.351 195.582 204.462 213.342 204.573 193.917 204.684 206.626 204.795 192.03 204.906 220.501 205.017 192.918 205.128 207.736 205.239 208.736 205.294 192.863 205.406 201.798 205.516 189.921 205.628 208.291 205.739 212.343 205.85 203.186 205.961 191.253 206.072 196.914 206.182 200.633 206.294 218.726 206.404 206.793 206.516 194.361 206.571 210.9 206.682 210.012 206.793 197.746 206.904 198.579 207.015 189.81 207.126 178.821 207.237 213.675 207.348 188.867 207.459 197.136 207.57 184.981 207.681 200.799 207.736 206.849 207.848 210.456 207.959 211.455 208.07 206.516 208.181 199.634 208.291 194.084 208.402 211.621 208.514 198.079 208.624 214.23 208.736 197.857 208.846 205.516 208.958 206.849 209.013 185.092 209.124 213.231 209.235 181.541 209.346 200.633 209.457 206.072 209.568 208.458 209.679 183.539 209.79 205.905 209.901 179.876 210.012 210.29 210.123 195.582 210.179 208.958 210.29 200.077 210.401 203.796 210.511 199.023 210.622 211.621 210.734 193.14 210.844 212.01 210.956 193.806 211.066 212.288 211.178 191.919 211.289 186.369 211.4 203.685 211.455 193.307 211.566 195.027 211.677 186.924 211.788 198.357 211.899 216.617 212.01 199.189 212.121 195.083 212.232 188.811 212.343 206.349 212.454 197.469 212.565 207.626 212.62 210.068 212.731 205.461 212.842 199.134 212.954 198.079 213.064 211.122 213.176 196.081 213.286 189.089 213.398 200.854 213.509 201.687 213.62 190.92 213.73 210.567 213.841 205.628 213.897 198.967 214.008 204.296 214.119 195.471 214.23 208.236 214.341 216.894 214.452 194.916 214.563 215.285 214.674 208.68 214.785 183.316 214.896 211.621 215.007 215.396 215.062 191.697 215.174 201.354 215.285 204.518 215.396 192.974 215.507 205.961 215.618 200.133 215.729 207.237 215.839 212.898 215.951 198.024 216.061 205.461 216.173 196.636 216.228 207.736 216.339 179.876 216.45 219.391 216.561 199.911 216.672 206.738 216.783 208.624 216.894 209.624 217.005 196.359 217.116 210.789 217.227 191.975 217.338 202.631 217.449 203.186 217.505 198.468 217.616 188.978 217.727 198.301 217.838 196.415 217.949 197.081 218.059 203.296 218.171 213.952 218.281 195.416 218.393 204.962 218.504 202.964 218.615 191.919 218.67 192.863 218.781 194.583 218.892 204.184 219.003 199.134 219.114 194.861 219.225 200.466 219.336 203.741 219.447 182.484 219.558 194.139 219.669 215.34 219.78 209.291 219.891 203.63 219.947 212.176 220.058 197.025 220.169 191.031 220.279 204.296 220.391 210.9 220.501 188.534 220.613 189.366 220.724 205.516 220.835 199.855 220.946 207.182 221.057 206.516 221.112 196.914 221.223 206.404 221.334 188.034 221.445 207.57 221.556 186.314 221.667 208.514 221.778 203.13 221.889 209.291 222 209.401 222.111 198.579 222.222 211.122 222.333 224.276 222.389 198.301 222.499 206.127 222.611 188.978 222.721 219.281 222.833 198.246 222.944 197.802 223.055 216.45 223.166 191.364 223.276 202.353 223.387 214.396 223.499 203.63 223.554 192.751 223.665 206.294 223.776 194.028 223.887 200.688 223.998 192.807 224.109 205.017 224.22 210.511 224.331 203.241 224.442 207.792 224.553 192.863 224.664 216.949 224.775 195.083 224.831 208.569 224.941 207.848 225.053 180.764 225.164 205.184 225.275 185.648 225.386 218.448 225.496 199.301 225.607 218.337 225.719 191.808 225.829 207.959 225.941 211.233 225.996 209.457 226.107 197.857 226.218 175.991 226.329 199.523 226.44 207.459 226.551 187.424 226.662 203.13 226.773 197.191 226.884 210.567 226.995 203.186 227.106 216.006 227.217 194.805 227.273 221.611 227.384 195.804 227.495 193.695 227.605 212.62 227.716 204.518 227.827 195.027 227.939 195.249 228.049 201.798 228.161 194.084 228.271 185.536 228.383 204.573 228.438 194.749 228.549 188.034 228.66 199.911 228.771 211.566 228.882 193.695 228.993 230.103 229.104 192.807 229.215 204.296 229.326 195.749 229.437 184.76 229.548 202.298 229.659 192.807 229.714 211.011 229.826 199.744 229.936 203.741 230.048 200.133 230.159 206.96 230.27 189.033 230.381 203.463 230.492 201.854 230.603 200.244 230.714 210.622 230.824 192.086 230.88 201.632 230.991 193.307 231.102 209.013 231.213 185.148 231.324 192.363 231.435 206.904 231.546 193.196 231.657 209.624 231.768 201.465 231.879 218.892 231.99 197.136 232.101 207.57 232.156 199.689 232.268 191.641 232.379 205.961 232.49 189.255 232.601 205.572 232.712 200.189 232.823 200.299 232.934 183.483 233.044 202.353 233.156 210.012 233.266 195.138 233.322 207.848 233.433 191.419 233.544 216.949 233.655 189.699 233.766 214.119 233.877 199.911 233.988 218.448 234.099 201.243 234.21 195.027 234.321 206.349 234.432 204.074 234.488 213.73 234.599 212.232 234.71 204.351 234.821 210.012 234.932 186.646 235.042 206.738 235.154 185.092 235.264 214.452 235.376 182.984 235.486 199.134 235.598 210.734 235.709 189.421 235.764 200.244 235.875 197.525 235.986 209.235 236.097 202.853 236.208 199.855 236.319 201.41 236.43 191.641 236.541 198.69 236.652 213.841 236.763 187.312 236.874 208.958 236.93 209.79 237.041 191.753 237.151 211.011 237.262 205.794 237.374 195.526 237.484 204.906 237.596 196.692 237.706 190.531 237.818 200.799 237.929 188.034 238.04 199.689 238.151 190.476 238.206 203.074 238.317 197.191 238.428 209.401 238.539 191.309 238.65 201.132 238.761 201.521 238.872 200.299 238.983 192.419 239.094 197.913 239.205 197.636 239.316 215.174 239.371 200.077 239.482 197.136 239.594 202.409 239.704 186.369 239.816 192.641 239.926 178.71 240.038 200.965 240.149 201.632 240.26 192.363 240.371 215.562 240.481 196.193 240.592 211.788 240.648 193.695 240.759 203.186 240.87 201.465 240.981 200.633 241.092 186.036 241.203 196.969 241.314 183.927 241.425 200.133 241.536 186.924 241.647 207.237 241.758 193.362 241.814 204.018 241.924 190.309 242.036 204.018 242.146 185.314 242.258 204.074 242.369 193.14 242.479 208.624 242.59 202.298 242.701 213.231 242.812 191.253 242.924 196.193 243.035 211.066 243.09 197.469 243.201 212.954 243.312 198.912 243.423 197.025 243.534 194.527 243.645 201.632 243.756 184.371 243.867 189.866 243.978 203.519 244.089 200.244 244.2 189.033 244.256 217.505 244.367 197.247 244.478 215.562 244.589 192.03 244.699 208.791 244.811 176.213 244.921 202.409 245.033 206.626 245.144 186.813 245.255 204.851 245.366 189.977 245.477 193.029 245.532 200.521 245.643 188.089 245.754 209.846 245.865 198.69 245.976 204.629 246.087 198.468 246.198 196.193 246.309 208.958 246.42 201.188 246.531 192.474 246.642 198.079 246.698 194.916 246.809 202.964 246.919 194.361 247.031 186.202 247.141 201.743 247.253 208.347 247.364 195.36 247.475 183.65 247.586 195.471 247.697 194.639 247.808 208.125 247.919 198.967 247.974 223.221 248.085 206.238 248.196 202.52 248.307 204.684 248.418 205.128 248.529 183.372 248.64 199.523 248.751 201.521 248.862 216.061 248.973 196.636 249.084 202.797 249.139 191.142 249.251 199.467 249.361 205.35 249.473 191.641 249.584 203.019 249.695 187.424 249.806 211.788 249.917 190.865 250.027 215.396 250.139 198.468 250.249 193.307 250.361 205.572 250.416 188.589 250.527 208.07 250.638 207.015 250.749 203.519 250.86 201.299 250.971 205.961 251.082 186.646 251.193 217.005 251.304 202.409 251.415 215.895 251.526 192.252 251.581 216.228 251.693 183.927 251.804 196.692 251.915 195.36 252.026 207.071 252.136 187.479 252.247 210.345 252.359 197.191 252.469 182.706 252.581 214.23 252.691 199.411 252.803 194.971 252.858 205.961 252.969 191.142 253.08 203.241 253.191 195.083 253.302 197.247 253.413 205.905 253.524 193.584 253.635 175.713 253.746 208.846 253.857 200.022 253.968 186.924 254.024 211.954 254.135 212.954 254.246 200.189 254.356 215.618 254.467 204.129 254.579 192.974 254.689 198.745 254.801 206.682 254.911 199.189 255.023 200.077 255.134 194.084 255.189 204.184 255.3 200.521 255.411 192.03 255.522 201.632 255.633 188.867 255.744 191.919 255.855 208.902 255.966 182.373 256.077 203.741 256.188 192.363 256.299 220.89 256.41 198.468 256.466 187.535 256.577 202.02 256.688 200.022 256.799 200.633 256.909 199.079 257.021 204.74 257.132 199.245 257.242 196.581 257.354 199.245 257.465 200.744 257.576 214.84 257.631 185.536 257.742 209.013 257.853 199.689 257.964 191.253 258.075 202.353 258.186 191.808 258.297 199.634 258.408 210.179 258.519 192.751 258.63 198.579 258.741 182.761 258.852 197.691 258.908 203.296 259.019 197.857 259.129 183.871 259.241 205.184 259.352 201.854 259.462 196.859 259.574 197.081 259.685 194.25 259.796 177.323 259.906 203.352 260.018 204.296 260.073 204.684 260.184 190.754 260.295 205.294 260.406 203.685 260.517 192.197 260.628 212.787 260.739 184.26 260.85 209.901 260.961 197.358 261.072 219.391 261.183 189.977 261.294 210.678 261.349 201.299 261.461 192.419 261.572 201.076 261.682 191.586 261.794 200.411 261.905 189.255 262.016 211.066 262.126 185.759 262.238 207.792 262.349 188.423 262.46 199.966 262.515 192.696 262.626 192.252 262.737 200.189 262.848 211.233 262.959 191.364 263.07 201.521 263.181 200.244 263.292 197.081 263.403 215.451 263.514 215.34 263.625 207.903 263.736 188.311 263.792 211.788 263.902 203.074 264.014 204.851 264.125 193.196 264.236 191.975 264.346 194.583 264.457 217.449 264.569 202.131 264.68 186.924 264.79 206.571 264.901 188.922 264.957 207.126 265.068 190.309 265.179 190.865 265.29 198.079 265.401 184.426 265.512 197.636 265.623 201.41 265.734 198.191 265.845 190.92 265.956 194.805 266.067 203.296 266.178 197.802 266.234 196.47 266.345 192.252 266.456 208.624 266.566 199.134 266.677 208.236 266.789 209.846 266.9 180.098 267.01 206.238 267.121 185.925 267.233 204.184 267.344 180.986 267.399 202.298 267.51 190.698 267.621 187.312 267.732 199.523 267.843 198.135 267.954 174.881 268.065 215.895 268.176 202.52 268.287 193.029 268.398 191.475 268.509 198.579 268.62 199.634 268.676 197.469 268.786 198.967 268.897 203.186 269.009 203.685 269.12 195.526 269.23 212.121 269.341 192.197 269.453 204.018 269.564 214.452 269.674 195.749 269.785 192.529 269.841 220.391 269.952 204.629 270.063 203.852 270.174 207.182 270.285 194.084 270.396 214.951 270.507 186.48 270.618 209.291 270.729 187.368 270.84 202.464 270.951 197.303 271.062 193.973 271.117 212.954 271.229 191.253 271.34 222.999 271.451 206.793 271.561 194.583 271.673 223.499 271.784 206.96 271.895 210.012 272.005 172.327 272.116 197.081 272.228 213.453 272.283 186.091 272.394 213.73 272.505 198.579 272.616 228.882 272.727 193.973 272.838 218.781 272.949 198.246 273.06 203.796 273.171 203.796 273.282 188.756 273.393 208.514 273.449 191.198 273.56 200.91 273.671 209.346 273.781 197.636 273.893 204.296 274.004 197.414 274.115 191.475 274.225 206.849 274.336 205.516 274.448 205.184 274.559 199.245 274.669 203.13 274.725 213.675 274.836 209.346 274.947 208.791 275.058 210.678 275.169 204.074 275.28 189.977 275.391 212.121 275.502 203.463 275.613 186.536 275.724 205.406 275.835 190.976 275.891 199.689 276.001 190.976 276.113 190.92 276.224 197.414 276.335 186.147 276.445 211.621 276.556 193.029 276.668 205.128 276.779 205.905 276.889 192.863 277.001 199.523 277.112 205.406 277.167 198.301 277.278 207.736 277.389 215.895 277.5 199.855 277.611 201.521 277.722 195.305 277.833 212.232 277.944 186.591 278.055 207.292 278.166 197.414 278.277 210.678 278.332 180.764 278.444 194.971 278.555 204.24 278.665 203.352 278.776 192.474 278.888 205.128 278.999 197.414 279.109 200.633 279.221 203.963 279.331 200.744 279.443 193.639 279.553 223.387 279.609 206.404 279.72 219.281 279.831 194.306 279.942 197.414 280.053 213.841 280.164 181.818 280.275 202.298 280.386 184.87 280.497 202.242 280.608 204.851 280.719 186.147 280.775 202.409 280.885 203.685 280.996 179.265 281.108 194.527 281.219 194.028 281.329 196.859 281.441 208.846 281.551 202.131 281.663 194.361 281.773 200.411 281.884 204.518 281.996 194.416 282.051 206.516 282.162 190.643 282.273 215.895 282.384 200.133 282.495 190.254 282.606 208.624 282.717 188.589 282.828 203.352 282.939 186.646 283.05 209.568 283.161 196.193 283.216 200.133 283.328 182.484 283.439 208.624 283.549 187.479 283.66 199.8 283.771 200.133 283.883 215.507 283.993 170.385 284.104 195.526 284.215 192.751 284.327 220.391 284.438 195.804 284.493 211.4 284.604 191.198 284.715 219.614 284.826 194.472 284.937 205.516 285.048 190.976 285.159 205.461 285.27 187.812 285.381 201.132 285.492 210.123 285.603 193.251 285.659 184.76 285.77 197.691 285.88 222.277 285.991 184.204 286.103 217.782 286.214 196.692 286.325 208.846 286.435 198.579 286.547 199.301 286.658 193.751 286.769 211.511 286.88 214.951 286.935 192.529 287.046 205.85 287.157 191.864 287.268 192.363 287.379 185.648 287.49 194.028 287.601 194.195 287.712 210.401 287.823 185.37 287.934 206.182 288.045 193.861 288.1 190.088 288.211 191.142 288.323 198.801 288.434 198.413 288.545 199.134 288.655 200.466 288.767 206.738 288.878 187.812 288.989 217.171 289.1 188.034 289.21 195.804 289.322 191.586 289.377 209.901 289.488 207.903 289.599 197.857 289.71 205.239 289.821 179.21 289.932 201.243 290.043 184.204 290.154 205.128 290.265 203.796 290.376 193.639 290.487 200.744 290.543 193.529 290.654 210.456 290.765 194.25 290.875 200.466 290.987 185.592 291.098 213.675 291.208 186.646 291.32 196.359 291.43 210.844 291.542 197.414 291.652 204.184 291.708 198.079 291.819 208.791 291.93 205.128 292.041 189.755 292.152 199.134 292.263 202.686 292.374 208.569 292.485 201.021 292.596 217.949 292.707 197.358 292.818 194.639 292.929 202.797 292.985 209.457 293.095 185.98 293.206 193.362 293.318 196.581 293.428 206.238 293.54 188.589 293.65 199.578 293.762 194.527 293.872 197.969 293.984 204.184 294.095 197.303 294.15 212.343 294.261 215.951 294.372 200.022 294.483 195.471 294.594 216.117 294.705 191.198 294.816 198.024 294.927 207.848 295.038 195.693 295.149 194.639 295.26 196.137 295.371 188.7 295.426 224.497 295.538 195.526 295.648 209.79 295.76 184.593 295.87 205.683 295.982 202.631 296.092 195.027 296.204 207.126 296.315 195.36 296.425 190.587 296.536 211.289 296.592 204.462 296.703 204.573 296.814 201.132 296.925 192.307 297.036 188.756 297.147 204.906 297.258 187.646 297.369 196.747 297.48 203.907 297.591 199.8 297.702 189.644 297.813 188.423 297.868 200.189 297.98 197.58 298.09 210.9 298.202 189.533 298.312 189.311 298.424 205.294 298.535 193.917 298.645 218.448 298.757 199.245 298.867 204.906 298.979 197.525 299.034 210.345 299.145 188.922 299.256 200.799 299.367 206.349 299.478 192.974 299.589 221.389 299.7 188.145 299.811 209.291 299.922 193.362 300.033 195.637 300.144 201.132 300.255 183.428 300.31 199.189 300.422 172.272 300.533 196.969 300.644 187.535 300.755 205.739 300.865 197.025 300.977 186.702 301.087 193.806 301.199 187.368 301.31 205.572 301.421 195.582 301.476 196.803 301.587 201.465 301.698 206.016 301.809 197.746 301.92 193.806 302.031 214.119 302.142 186.813 302.253 209.124 302.364 175.436 302.475 201.964 302.586 177.045 302.697 197.913 302.753 203.13 302.864 192.419 302.975 193.307 303.085 203.408 303.197 194.639 303.307 203.186 303.419 197.081 303.53 197.358 303.641 208.125 303.751 176.102 303.863 205.739 303.918 181.818 304.029 194.527 304.14 179.986 304.251 206.46 304.362 198.246 304.473 188.256 304.584 200.466 304.695 200.854 304.806 208.569 304.917 213.12 305.028 207.126 305.139 189.033 305.195 216.006 305.305 194.805 305.417 202.076 305.527 190.143 305.639 198.079 305.75 194.084 305.861 197.081 305.971 204.406 306.082 203.296 306.194 208.236 306.305 190.254 306.36 174.159 306.471 201.299 306.582 193.584 306.693 204.296 306.804 193.973 306.915 205.628 307.026 198.745 307.137 203.408 307.248 197.025 307.359 195.526 307.47 208.014 307.581 192.474 307.637 207.514 307.747 189.311 307.859 189.644 307.97 199.744 308.081 202.52 308.191 193.196 308.302 204.962 308.414 190.365 308.525 200.688 308.635 209.79 308.746 211.344 308.802 187.424 308.913 223.055 309.024 207.57 309.135 183.705 309.246 199.689 309.357 181.263 309.468 206.127 309.579 200.189 309.69 191.142 309.801 199.523 309.912 194.416 309.967 206.738 310.079 191.975 310.19 200.411 310.3 210.789 310.411 203.241 310.522 202.131 310.634 209.124 310.745 203.685 310.855 206.182 310.966 200.91 311.078 200.411 311.189 180.153 311.244 207.237 311.355 193.417 311.466 198.135 311.577 204.74 311.688 196.692 311.799 213.342 311.91 191.142 312.021 193.307 312.132 188.478 312.243 210.9 312.354 179.931 312.41 204.906 312.52 193.695 312.632 193.973 312.742 192.696 312.854 196.081 312.965 188.256 313.076 199.467 313.186 199.966 313.298 210.956 313.409 194.694 313.52 202.186 313.63 203.019 313.686 215.673 313.797 194.139 313.908 214.508 314.019 197.969 314.13 221.334 314.241 204.573 314.352 203.963 314.463 207.126 314.574 195.249 314.685 188.867 314.796 193.196 314.852 200.077 314.962 185.148 315.074 197.358 315.185 197.469 315.296 216.949 315.406 199.189 315.518 201.964 315.629 223.887 315.74 191.475 315.85 209.291 315.961 201.41 316.073 198.357 316.128 197.857 316.239 193.917 316.35 213.786 316.461 199.467 316.572 188.645 316.683 201.743 316.794 198.468 316.905 190.476 317.016 205.739 317.127 193.529 317.238 215.396 317.294 194.583 317.405 185.092 317.516 211.844 317.626 188.423 317.738 212.066 317.849 193.861 317.96 177.6 318.07 217.338 318.181 194.25 318.293 189.977 318.404 181.874 318.515 193.085 318.57 193.751 318.681 197.191 318.792 194.195 318.903 199.023 319.014 183.761 319.125 203.019 319.131 203.019" stroke="#FF0000" stroke-width="0.555" fill="none" transform="scale(1 1.00225)"/><path d="M53.724 9.2685 53.724 234.432 319.125 234.432 319.125 9.2685 53.724 9.2685ZM53.724 9.2685 53.7295 9.2685" stroke="#000000" stroke-width="0.555" fill="none" transform="scale(1 1.00225)"/></g></svg>